<svg xmlns="http://www.w3.org/2000/svg" width="230" height="140">
    <path
        d="M 167.8 96.7 c -5.3 0 -9.6 -4.3 -9.6 -9.6 s 4.3 -9.6 9.6 -9.6 s 9.6 4.3 9.6 9.6 s -4.3 9.6 -9.6 9.6 m -105.7 0 c -5.3 0 -9.6 -4.3 -9.6 -9.6 s 4.3 -9.6 9.6 -9.6 s 9.6 4.3 9.6 9.6 s -4.3 9.6 -9.6 9.6 m 109.1 -57.6 l 19.2 -33.1 c 1.1 -1.9 0.4 -4.3 -1.5 -5.4 s -4.3 -0.4 -5.4 1.5 l -19.4 33.5 c -14.8 -6.8 -31.4 -10.6 -49.1 -10.6 s -34.4 3.8 -49.2 10.5 l -19.4 -33.5 c -1.1 -1.9 -3.5 -2.6 -5.4 -1.5 s -2.6 3.5 -1.5 5.4 l 19.1 33.1 c -32.8 17.9 -55.3 51.1 -58.6 90.4 l 229.7 0 c -3.2 -39.2 -25.6 -72.4 -58.5 -90.3"
        fill="#3dda84" />
</svg>