<svg xmlns="http://www.w3.org/2000/svg" xmlns:xlink="http://www.w3.org/1999/xlink" width="58px" height="44px" viewBox="0 0 58 44" version="1.1">
    <path d="M 8.9 7.7 C 8.9 7.7 3.9 12.4 4.2 17.4 C 4.3 21 7.1 23.2 7.1 23.2 C 11.6 27.5 22.2 33 24.7 34.2 C 24.8 34.3 24.9 34.3 25 34.2 C 25 34.2 25 34 25 33.9 C 18.2 19.1 8.9 7.7 8.9 7.7 M 22 0.6 C 17.2 1.7 16.1 6.1 16.1 6.1 C 15.2 8.4 16.1 11.8 16.1 11.8 C 17.7 18.7 25.4 30.2 27.1 32.7 C 27.1 32.8 27.2 32.8 27.3 32.8 C 27.4 32.8 27.5 32.7 27.5 32.6 C 30.1 6.8 24.8 0 24.8 0 C 23.3 0.2 22 0.6 22 0.6 M 23.1 37.8 C 18.7 37.9 5.3 38.4 5.3 38.4 C 9.3 45.3 13.9 43.7 13.9 43.7 C 16.4 43 21.5 39.4 23.3 38.2 C 23.4 38.1 23.3 37.9 23.3 37.9 C 23.3 37.8 23.2 37.8 23.1 37.8 M 23.5 36 C 15.7 30.7 0.5 22.6 0.5 22.6 C -0.8 26.7 0.9 30.2 0.9 30.2 C 2.9 34.5 6.7 35.7 6.7 35.7 C 8.3 36.4 9.7 36.4 9.7 36.4 C 10 36.5 20.6 36.4 23.4 36.4 C 23.5 36.4 23.6 36.4 23.6 36.3 C 23.6 36.2 23.6 36.1 23.5 36 M 57.5 22.6 C 57.5 22.6 42.4 30.7 34.5 36 C 34.5 36.1 34.4 36.2 34.4 36.3 C 34.4 36.4 34.5 36.4 34.6 36.4 C 37.4 36.4 48 36.5 48.3 36.4 C 48.3 36.4 49.7 36.4 51.4 35.7 C 51.4 35.7 55.2 34.5 57.1 30.2 C 57.1 30.2 58.9 26.7 57.5 22.6 M 34.7 37.9 C 34.7 37.9 34.7 38.1 34.8 38.2 C 36.5 39.4 41.7 43 44.2 43.7 C 44.2 43.7 48.8 45.3 52.8 38.4 C 52.8 38.4 39.4 37.9 34.9 37.8 C 34.9 37.8 34.8 37.8 34.7 37.9 M 42 6.1 C 42 6.1 40.8 1.7 36.1 0.6 C 36.1 0.6 34.7 0.2 33.3 0 C 33.3 0 28 6.8 30.6 32.6 C 30.6 32.7 30.6 32.8 30.7 32.8 C 30.8 32.8 30.9 32.8 31 32.7 C 32.6 30.2 40.4 18.7 41.9 11.8 C 41.9 11.8 42.8 8.4 42 6.1 M 53.9 17.4 C 54.2 12.4 49.1 7.7 49.1 7.7 C 49.1 7.7 39.8 19.1 33 33.9 C 33 34 33 34.2 33.1 34.2 C 33.1 34.3 33.2 34.3 33.3 34.2 C 35.9 33 46.5 27.5 50.9 23.2 C 50.9 23.2 53.7 21 53.9 17.4" fill="#c8102e"/>
</svg>