<svg version="1.1" id="Logo" xmlns="http://www.w3.org/2000/svg" xml:space="preserve"
    width="43" height="49">
    <style>
        .st0 {
            fill: #fff
        }

        .st1 {
            fill: #ccc
        }
    </style>
    <path class="st1"
        d="M 42.5 33.6 V 11.2 L 23.1 0 v 8.6 l 7.6 4.4 c 0.3 0.2 0.3 0.6 0 0.7 l -9 5.2 c -0.3 0.2 -0.6 0.1 -0.8 0 l -9 -5.2 c -0.3 -0.1 -0.3 -0.6 0 -0.7 l 7.6 -4.4 V 0 L 0 11.2 v 22.4 v -0.1 v 0.1 l 7.4 -4.3 v -8.8 c 0 -0.3 0.4 -0.5 0.6 -0.4 l 9 5.2 c 0.3 0.2 0.4 0.4 0.4 0.7 v 10.4 c 0 0.3 -0.4 0.5 -0.6 0.4 l -7.6 -4.4 l -7.4 4.3 L 21.2 48 l 19.4 -11.2 l -7.4 -4.3 l -7.6 4.4 c -0.3 0.2 -0.6 0 -0.6 -0.4 V 26.1 c 0 -0.3 0.2 -0.6 0.4 -0.7 l 9 -5.2 c 0.3 -0.2 0.6 0 0.6 0.4 v 8.8 l 7.5 4.2 z">
    </path>
    <path
        d="M 21.2 48 l 19.4 -11.2 l -7.4 -4.3 l -7.6 4.4 c -0.3 0.2 -0.6 0 -0.6 -0.4 V 26.1 c 0 -0.3 0.2 -0.6 0.4 -0.7 l 9 -5.2 c 0.3 -0.2 0.6 0 0.6 0.4 v 8.8 l 7.4 4.3 V 11.2 L 21.2 23.5 V 48 z"
        fill="#a6a6a6"></path>
    <path class="st0"
        d="M 23.1 0 v 8.6 l 7.6 4.4 c 0.3 0.2 0.3 0.6 0 0.7 l -9 5.2 c -0.3 0.2 -0.6 0.1 -0.8 0 l -9 -5.2 c -0.3 -0.1 -0.3 -0.6 0 -0.7 l 7.6 -4.4 V 0 L 0 11.2 l 21.2 12.3 l 21.2 -12.3 L 23.1 0 z">
    </path>
    <path class="st1"
        d="M 16.9 36.9 l -7.6 -4.4 l -7.4 4.3 L 21.3 48 V 23.5 L 0 11.2 v 22.4 v -0.1 v 0.1 l 7.4 -4.3 v -8.8 c 0 -0.3 0.4 -0.5 0.6 -0.4 l 9 5.2 c 0.3 0.2 0.4 0.4 0.4 0.7 v 10.4 c 0.1 0.4 -0.2 0.7 -0.5 0.5 z">
    </path>
</svg>