<svg width="785.7" height="875.7" xmlns="http://www.w3.org/2000/svg">
    <path id="svg_1" fill="#8ed6fb"
        d="m704.9,641.7l-305.1,172.6l0,-134.4l190.1,-104.6l115,66.4zm20.9,-18.9l0,-360.9l-111.6,64.5l0,232l111.6,64.4zm-657.9,18.9l305.1,172.6l0,-134.4l-190.2,-104.6l-114.9,66.4zm-20.9,-18.9l0,-360.9l111.6,64.5l0,232l-111.6,64.4zm13.1,-384.3l312.9,-177l0,129.9l-200.5,110.3l-1.6,0.9l-110.8,-64.1zm652.6,0l-312.9,-177l0,129.9l200.5,110.2l1.6,0.9l110.8,-64z" />
    <path id="svg_2" fill="#1c78c0"
        d="m373,649.3l-187.6,-103.2l0,-204.3l187.6,108.3l0,199.2zm26.8,0l187.6,-103.1l0,-204.4l-187.6,108.3l0,199.2zm-201.7,-331.1l188.3,-103.5l188.3,103.5l-188.3,108.7l-188.3,-108.7z" />
</svg>